<svg xmlns="http://www.w3.org/2000/svg" width="1600" height="900" viewBox="0 0 1600 900">
    <defs>
      <linearGradient id="g" x1="0" x2="1" y1="0" y2="1">
        <stop offset="0%" stop-color="#657a9b"/>
        <stop offset="55%" stop-color="#90a5c7"/>
        <stop offset="100%" stop-color="#d9c1a7"/>
      </linearGradient>
    </defs>
    
        <rect x="0" y="0" width="1600" height="900" fill="url(#g)"/>
        <circle cx="1260" cy="160" r="86" fill="rgba(255,255,255,.18)"/>
        <path d="M0 650 L220 420 L400 620 L630 300 L840 650 L1100 360 L1380 650 L1600 510 L1600 900 L0 900 Z" fill="#d9c1a7" opacity=".82"/>
        <path d="M0 720 C220 640 320 620 520 650 C710 676 900 730 1130 680 C1300 646 1420 630 1600 670 L1600 900 L0 900 Z" fill="#1e355d" opacity=".42"/>
        <rect x="280" y="520" width="1000" height="26" rx="12" fill="rgba(255,255,255,.75)"/>
        <rect x="720" y="546" width="140" height="210" rx="14" fill="#243b67" opacity=".55"/>
        
    <rect x="0" y="0" width="1600" height="900" fill="url(#fade)"/>
    <defs>
      <linearGradient id="fade" x1="0" x2="0" y1="0" y2="1">
        <stop offset="0%" stop-color="rgba(8,18,41,.04)"/>
        <stop offset="100%" stop-color="rgba(8,18,41,.36)"/>
      </linearGradient>
    </defs>
    <text x="90" y="720" font-size="94" font-family="Inter,Arial,sans-serif" font-weight="800" fill="white">EasyTravel</text>
    <text x="90" y="790" font-size="34" font-family="Inter,Arial,sans-serif" fill="rgba(255,255,255,.92)">Curated package visuals</text>
    </svg>